<?xml version="1.0" encoding="UTF-8"?>
<svg xmlns="http://www.w3.org/2000/svg" xmlns:xlink="http://www.w3.org/1999/xlink" width="256px" height="px" viewBox="0 0 255 196" version="1.1">
<g id="surface1">
<path style=" stroke:none;fill-rule:nonzero;fill:rgb(0%,0%,0%);fill-opacity:1;" d="M 191.546875 145.863281 L 189.160156 142.398438 C 191.75 139.109375 192.910156 136.578125 195.03125 132.9375 L 199.265625 132.996094 C 196.328125 139.203125 194.421875 141.925781 191.546875 145.863281 Z M 202.28125 161.101562 L 194.703125 150.292969 C 172.863281 177.21875 148.074219 182.46875 127.804688 183.316406 C 121.03125 183.234375 104.777344 181.398438 93.738281 176.007812 C 76.570312 167.621094 61.378906 156.457031 50.136719 132.574219 L 36.628906 132.59375 C 46.226562 158.113281 63.46875 173.640625 79.808594 183.273438 C 96.253906 192.96875 114.296875 195.886719 127.707031 195.988281 C 151.148438 196.160156 181.597656 186.199219 202.28125 161.105469 Z M 202.28125 161.101562 "/>
<path style=" stroke:none;fill-rule:nonzero;fill:rgb(14.509805%,40.784314%,98.823529%);fill-opacity:1;" d="M 202.28125 161.105469 L 194.703125 150.292969 C 199.765625 143.523438 201.199219 141.132812 205.195312 132.539062 L 218.808594 132.585938 C 216.492188 138.785156 212.902344 147.820312 202.28125 161.105469 Z M 202.28125 161.105469 "/>
<path style=" stroke:none;fill-rule:nonzero;fill:rgb(14.509805%,40.784314%,98.823529%);fill-opacity:1;" d="M 191.546875 145.863281 L 189.160156 142.398438 C 180.402344 154.578125 170.746094 161.0625 163.375 165.269531 C 157.113281 168.90625 144.417969 173.074219 134.695312 173.949219 C 119.835938 174.808594 110.992188 172.261719 107.890625 171.621094 C 104.710938 170.539062 95.742188 168.761719 82.261719 159.109375 C 68.777344 149.460938 60.101562 133.027344 60.3125 133.027344 C 60.3125 133.027344 57.09375 133.042969 55.941406 133.03125 C 63.410156 148.402344 73.910156 158.207031 83.636719 164.726562 C 94.613281 172.078125 105.648438 174.957031 106.566406 175.253906 C 111.246094 176.753906 122.445312 178.683594 134.328125 177.820312 C 141.652344 177.289062 155.613281 173.992188 164.625 168.894531 C 169.714844 166.28125 181.800781 159.066406 191.546875 145.863281 Z M 191.546875 145.863281 "/>
<path style=" stroke:none;fill-rule:nonzero;fill:rgb(14.509805%,40.784314%,98.823529%);fill-opacity:1;" d="M 104.890625 20.910156 L 107.207031 24.375 C 95.070312 27.703125 85.84375 33.089844 78.25 39.507812 C 70.917969 45.703125 65.042969 52.910156 59.605469 63.078125 L 55.234375 63.078125 C 59.074219 54.640625 66.617188 44.222656 75.476562 36.738281 C 84.632812 29.003906 94.507812 24.097656 104.890625 20.910156 Z M 94.289062 5.804688 L 101.851562 16.644531 C 128.328125 8.800781 151.175781 14.273438 167.339844 22.925781 C 185.3125 32.539062 198.199219 48.039062 204.675781 63.371094 L 218.234375 63.375 C 209.710938 40.484375 193.175781 21.835938 170.886719 10.519531 C 148.613281 -0.785156 121.371094 -3.929688 94.289062 5.804688 Z M 94.289062 5.804688 "/>
<path style=" stroke:none;fill-rule:nonzero;fill:rgb(0%,0%,0%);fill-opacity:1;" d="M 94.289062 5.804688 L 101.851562 16.648438 C 75.207031 25.023438 56.976562 45.359375 49.699219 63.382812 L 36.085938 63.339844 C 39.894531 53.601562 53.332031 21.238281 94.289062 5.804688 Z M 94.289062 5.804688 "/>
<path style=" stroke:none;fill-rule:nonzero;fill:rgb(0%,0%,0%);fill-opacity:1;" d="M 104.890625 20.910156 L 107.179688 24.382812 C 133.992188 16.695312 158.035156 27.730469 161.941406 30.191406 C 164.222656 31.632812 182.796875 40.394531 194.398438 63.050781 L 198.738281 63.140625 C 191.136719 46.328125 178.066406 33.960938 162.609375 26.160156 C 145.8125 17.6875 125.234375 15.019531 104.890625 20.910156 Z M 104.890625 20.910156 "/>
<path style=" stroke:none;fill-rule:nonzero;fill:rgb(0%,0%,0%);fill-opacity:1;" d="M 0.046875 74.230469 L 82.269531 74.203125 L 93.582031 91.910156 L 74.015625 121.765625 L 5.316406 121.675781 L 13.660156 109.964844 L 19.234375 110.015625 L 31.410156 91.988281 L 46.457031 91.933594 L 35.761719 109.761719 L 65.511719 109.570312 L 78.074219 91.460938 L 73.9375 85.75 L 7.824219 85.867188 Z M 0.046875 74.230469 "/>
<path style=" stroke:none;fill-rule:nonzero;fill:rgb(0%,0%,0%);fill-opacity:1;" d="M 87.976562 74.203125 L 96.570312 85.863281 L 102.839844 85.816406 L 80.1875 121.773438 L 96.285156 121.75 L 107.632812 103.714844 L 146.804688 103.902344 L 155.039062 91.984375 L 116.128906 91.949219 L 119.804688 85.824219 L 158.59375 85.847656 L 166.769531 74.332031 Z M 87.976562 74.203125 "/>
<path style=" stroke:none;fill-rule:nonzero;fill:rgb(14.509805%,40.784314%,98.823529%);fill-opacity:1;" d="M 161.230469 92.394531 L 153.765625 103.886719 L 172.761719 103.757812 L 184.371094 121.660156 L 199.605469 121.675781 L 179.933594 92.410156 Z M 161.230469 92.394531 "/>
<path style=" stroke:none;fill-rule:nonzero;fill:rgb(14.509805%,40.784314%,98.823529%);fill-opacity:1;" d="M 173.082031 74.332031 L 165.65625 85.589844 L 183.132812 85.621094 L 206.378906 121.699219 L 221.886719 121.664062 L 198.382812 85.765625 L 205.277344 85.710938 L 228.871094 121.707031 L 249.898438 121.414062 L 241.410156 110.230469 L 236.15625 110.277344 L 219.859375 85.886719 L 247.890625 85.734375 L 254.871094 74.460938 Z M 173.082031 74.332031 "/>
</g>
</svg>
