<?xml version="1.0" encoding="UTF-8"?>
<svg xmlns="http://www.w3.org/2000/svg" xmlns:xlink="http://www.w3.org/1999/xlink" width="256px" height="px" viewBox="0 0 256 128" version="1.1">
<g id="surface1">
<path style=" stroke:none;fill-rule:nonzero;fill:rgb(0%,0%,0%);fill-opacity:1;" d="M 128.105469 4.027344 C 134.769531 2.5 141.621094 1.960938 148.441406 1.597656 C 164.1875 2.027344 180.621094 5.601562 193.203125 15.605469 C 189.882812 15.078125 186.605469 14.304688 183.261719 13.917969 C 172.722656 12.65625 161.996094 13.171875 151.585938 15.199219 C 144.621094 16.597656 137.703125 18.519531 131.300781 21.65625 C 121.992188 26.144531 113.390625 32.078125 105.625 38.886719 C 108.058594 38.40625 110.453125 37.746094 112.875 37.195312 C 124.191406 34.695312 135.832031 33.878906 147.398438 34.160156 C 168.378906 34.65625 189.363281 38.273438 209.082031 45.542969 C 222.03125 50.371094 234.53125 56.714844 245.480469 65.226562 C 248.054688 67.242188 250.546875 69.375 252.761719 71.792969 C 243.175781 71 233.539062 69.648438 223.917969 70.726562 C 218.285156 71.378906 212.703125 72.859375 207.675781 75.527344 C 200.570312 79.207031 194.675781 84.769531 189.078125 90.410156 C 178.550781 101.058594 168.1875 112.445312 154.609375 119.234375 C 145.609375 123.992188 135.398438 125.878906 125.304688 126.101562 C 115.933594 125.703125 106.464844 123.738281 98.261719 119.023438 C 93.820312 116.472656 89.640625 113.289062 86.554688 109.15625 C 101.558594 115.128906 118.8125 114.773438 133.691406 108.585938 C 140.90625 105.515625 147.355469 100.882812 153.152344 95.628906 C 163.992188 85.894531 173.320312 74.378906 185.554688 66.285156 C 188.242188 64.460938 191.167969 63.03125 193.980469 61.410156 C 189.167969 60.699219 184.296875 60.660156 179.449219 60.332031 C 170.902344 60.039062 162.339844 59.867188 153.785156 60.140625 C 153.683594 63.726562 153.429688 67.394531 152.003906 70.742188 C 148.855469 78.886719 141.121094 85.035156 132.457031 86.128906 C 123.886719 87.40625 114.839844 83.660156 109.617188 76.742188 C 107.359375 73.945312 106.074219 70.539062 105.046875 67.136719 C 99.9375 68.46875 95.027344 70.539062 90.300781 72.875 C 91.4375 81.078125 97.152344 87.859375 103.828125 92.347656 C 109.042969 95.945312 115.125 98.015625 121.304688 99.179688 C 118.324219 100.339844 115.109375 100.574219 111.953125 100.816406 C 100.710938 101.503906 89.179688 98.183594 80.265625 91.222656 C 76.476562 88.367188 73.445312 84.679688 70.738281 80.816406 C 59.714844 84.277344 47.878906 85.144531 36.488281 83.09375 C 26.46875 81.335938 16.457031 77.5625 8.929688 70.507812 C 6.65625 68.410156 4.75 65.9375 3.261719 63.226562 C 13.714844 65.367188 24.664062 67.207031 35.195312 64.464844 C 47.066406 61.511719 56.6875 53.421875 65.601562 45.433594 C 74.175781 37.699219 82.433594 29.589844 91.597656 22.550781 C 102.441406 14.144531 114.652344 7.128906 128.105469 4.023438 M 115.457031 64.179688 C 116.457031 69.070312 120.042969 73.378906 124.832031 74.890625 C 130.484375 76.828125 137.222656 74.542969 140.519531 69.550781 C 142.371094 66.953125 143.050781 63.726562 142.914062 60.578125 C 133.695312 61.015625 124.445312 62.03125 115.457031 64.179688 Z M 115.457031 64.179688 "/>
</g>
</svg>
