<?xml version="1.0" encoding="UTF-8"?>
<svg xmlns="http://www.w3.org/2000/svg" xmlns:xlink="http://www.w3.org/1999/xlink" width="256px" height="px" viewBox="0 0 256 295" version="1.1">
<g id="surface1">
<path style=" stroke:none;fill-rule:nonzero;fill:rgb(0%,0%,0%);fill-opacity:1;" d="M 256.199219 221.375 L 256.199219 130.546875 L 193.933594 130.546875 L 223.582031 147.148438 L 223.582031 202.582031 L 144.296875 248.25 L 128.101562 285.585938 L 111.902344 248.25 L 32.621094 202.582031 L 32.621094 92.578125 L 111.894531 46.914062 L 128.101562 9.554688 L 144.304688 46.914062 L 223.582031 92.578125 L 256.199219 73.785156 L 128.097656 -0.00390625 L 0 73.785156 L 0 221.375 L 128.097656 295.167969 Z M 256.199219 221.375 "/>
<path style=" stroke:none;fill-rule:nonzero;fill:rgb(0%,0%,0%);fill-opacity:1;" d="M 206.296875 192.792969 L 206.296875 158.398438 L 161.992188 132.875 L 143.308594 156.507812 Z M 206.296875 192.792969 "/>
<path style=" stroke:none;fill-rule:nonzero;fill:rgb(0%,0%,0%);fill-opacity:1;" d="M 206.304688 102.703125 L 146.597656 102.703125 L 128.101562 113.355469 L 109.605469 102.703125 L 49.894531 102.703125 L 98.246094 130.550781 L 49.894531 158.40625 L 49.894531 192.800781 L 49.898438 192.800781 L 157.960938 130.550781 Z M 206.304688 102.703125 "/>
</g>
</svg>
